# xmcd
#
# Track frame offsets:
#	150
#	32323
#	44525
#	58043
#	74343
#	93513
#	106632
#	119599
#	138464
#	148350
#	164412
#	178312
#	197732
#
# Disc length: 2879 seconds
#
# Revision: 0
# Processed by: cddbd v1.5.1PL0 Copyright (c) Steve Scherf et al.
# Submitted via: dBpowerAMP V4.0
#
DISCID=c40b3d0d
DTITLE=Mitchell Cormier - Back on Bourbon Street
DYEAR=1900
DGENRE=Zydeco
TTITLE0=Evangeline Special
TTITLE1=Jolie Blonde
TTITLE2=Cajun Stripper
TTITLE3=Heritage Waltz
TTITLE4=Amedee 2 Step
TTITLE5=Little Girl Next Door
TTITLE6=OST Special
TTITLE7=Reno Waltz
TTITLE8=Bourbon Street
TTITLE9=In The Pines
TTITLE10=Paper in my Shoe
TTITLE11=Heart Broken Dance
TTITLE12=Went to the Dance
EXTD=
EXTT0=
EXTT1=
EXTT2=
EXTT3=
EXTT4=
EXTT5=
EXTT6=
EXTT7=
EXTT8=
EXTT9=
EXTT10=
EXTT11=
EXTT12=
PLAYORDER=
